<?xml version="1.0" encoding="UTF-8" standalone="no"?>
<svg
   width="100"
   height="100"
   viewBox="0 0 100 100"
   fill="none"
   version="1.1"
   id="svg5"
   sodipodi:docname="logo.svg"
   xml:space="preserve"
   inkscape:version="1.4 (e7c3feb100, 2024-10-09)"
   xmlns:inkscape="http://www.inkscape.org/namespaces/inkscape"
   xmlns:sodipodi="http://sodipodi.sourceforge.net/DTD/sodipodi-0.dtd"
   xmlns="http://www.w3.org/2000/svg"
   xmlns:svg="http://www.w3.org/2000/svg"><defs
     id="defs5" /><sodipodi:namedview
     id="namedview5"
     pagecolor="#ffffff"
     bordercolor="#000000"
     borderopacity="0.25"
     inkscape:showpageshadow="2"
     inkscape:pageopacity="0.0"
     inkscape:pagecheckerboard="0"
     inkscape:deskcolor="#d1d1d1"
     showgrid="false"
     inkscape:zoom="4.0548209"
     inkscape:cx="53.146614"
     inkscape:cy="27.374822"
     inkscape:window-width="1920"
     inkscape:window-height="1011"
     inkscape:window-x="0"
     inkscape:window-y="0"
     inkscape:window-maximized="1"
     inkscape:current-layer="svg5" /><g
     style="fill:#000000"
     id="g5"
     transform="matrix(0.16243377,0,0,0.16243377,12.125119,9.9571163)"><g
       id="g4">
	<path
   d="m 338.196,146.196 -7.999,8 c -2.929,2.929 -2.929,7.678 0,10.606 1.464,1.465 3.384,2.197 5.303,2.197 1.919,0 3.839,-0.732 5.303,-2.197 l 8,-8 c 2.929,-2.929 2.928,-7.678 0,-10.606 -2.928,-2.929 -7.677,-2.928 -10.607,0 z"
   id="path1" />
	<path
   d="m 314.197,170.196 -168,168 c -2.929,2.929 -2.929,7.678 0,10.606 1.464,1.464 3.384,2.197 5.303,2.197 1.919,0 3.839,-0.732 5.303,-2.197 l 168,-168 c 2.929,-2.929 2.929,-7.678 0,-10.606 -2.928,-2.928 -7.677,-2.928 -10.606,0 z"
   id="path2" />
	<path
   d="m 485.286,72.095 c -5.79,-2.346 -12.382,-1.01 -16.797,3.406 l -32.876,32.876 -38.08,-10.203 -10.203,-38.08 33.552,-33.552 c 4.431,-4.431 5.758,-10.799 3.465,-16.621 -2.276,-5.779 -7.768,-9.654 -13.99,-9.872 -15.153,-0.53 -30.085,3.23 -44.376,11.177 -16.95,9.427 -30.566,24.162 -38.34,41.493 -7.68,17.122 -9.568,34.962 -5.63,53.095 L 75.692,352.132 C 74.263,352.044 72.874,352 71.5,352 32.075,352 0,384.074 0,423.5 0,462.926 32.075,495 71.5,495 c 39.425,0 71.5,-32.075 71.5,-71.5 0,-1.374 -0.044,-2.764 -0.133,-4.192 L 389.185,172.99 c 18.161,3.945 36.031,2.043 53.183,-5.669 17.329,-7.792 32.034,-21.367 41.406,-38.223 7.662,-13.78 11.436,-28.188 11.217,-42.823 -0.094,-6.262 -3.903,-11.827 -9.705,-14.18 z m -14.621,49.713 c -7.813,14.051 -20.046,25.355 -34.448,31.832 -15.477,6.959 -30.991,8.211 -47.426,3.825 -2.585,-0.689 -5.344,0.051 -7.237,1.943 L 129.792,411.169 c -1.608,1.607 -2.399,3.858 -2.152,6.118 0.242,2.216 0.36,4.248 0.36,6.212 0,31.154 -25.346,56.5 -56.5,56.5 C 40.346,479.999 15,454.654 15,423.5 15,392.346 40.346,367 71.5,367 c 1.964,0 3.996,0.118 6.212,0.36 2.259,0.245 4.51,-0.544 6.118,-2.152 L 335.591,113.447 c 1.893,-1.893 2.633,-4.65 1.943,-7.237 -4.379,-16.411 -3.139,-31.9 3.792,-47.352 6.458,-14.397 17.802,-26.658 31.943,-34.522 12.039,-6.695 23.992,-9.74 36.562,-9.295 0.166,0.005 0.416,0.014 0.558,0.377 0.114,0.289 0.013,0.39 -0.115,0.518 L 373.66,52.549 c -1.895,1.895 -2.635,4.656 -1.941,7.244 l 12.445,46.445 c 0.694,2.588 2.715,4.61 5.304,5.304 l 46.445,12.445 c 2.588,0.693 5.35,-0.047 7.244,-1.941 l 35.938,-35.938 v 0 c 0.123,-0.123 0.239,-0.24 0.554,-0.111 0.337,0.137 0.34,0.332 0.343,0.503 0.182,12.143 -2.869,23.692 -9.327,35.308 z"
   id="path3" />
	<path
   d="M 71.5,376 C 45.309,376 24,397.308 24,423.5 24,449.692 45.309,471 71.5,471 97.691,471 119,449.691 119,423.5 119,397.309 97.691,376 71.5,376 Z m 0,80 C 53.58,456 39,441.42 39,423.5 39,405.58 53.58,391 71.5,391 89.42,391 104,405.58 104,423.5 104,441.42 89.42,456 71.5,456 Z"
   id="path4" />
</g></g><path
     id="path5"
     style="stroke:#000000;stroke-width:4.49927325;stroke-linecap:round;stroke-dasharray:none"
     inkscape:transform-center-x="1.3874218"
     inkscape:transform-center-y="-1.1692828"
     d="M -6.7324098,36.175137 -16.940076,16.712381 18.018552,-19.204018 38.443979,-9.1453599 M 59.38782,1.1492985 62.979886,2.9448356 55.808892,52.549978 6.4156386,61.058789 3.9089905,56.299318"
     sodipodi:nodetypes="ccccccccc"
     transform="matrix(0.62030662,0,0,0.62030662,35.287855,39.321119)" /></svg>
