<?xml version="1.0" encoding="utf-8"?>
<!-- Generator: Adobe Illustrator 21.1.0, SVG Export Plug-In . SVG Version: 6.00 Build 0)  -->
<svg version="1.1" xmlns="http://www.w3.org/2000/svg" xmlns:xlink="http://www.w3.org/1999/xlink" x="0px" y="0px"
	 viewBox="0 0 200 100" style="enable-background:new 0 0 200 100;" xml:space="preserve">
<style type="text/css">
	.st0{fill-rule:evenodd;clip-rule:evenodd;fill:#0B996B;}
	.st1{fill-rule:evenodd;clip-rule:evenodd;fill:#1B6936;}
	.st2{fill-rule:evenodd;clip-rule:evenodd;fill:#95C897;}
	.st3{fill-rule:evenodd;clip-rule:evenodd;fill:#036635;}
	.st4{fill-rule:evenodd;clip-rule:evenodd;fill:#231F20;}
	.st5{fill:#231F20;}
</style>
<g id="Layer_1">
</g>
<g id="Layer_2">
	<g>
		<path class="st0" d="M91.2,53.5c1,1.3,2.1,2.5,3.4,3.4c-0.2,0.2-0.4,0.4-0.5,0.6l-2.6,4.6c-0.6,1.1-0.3,2.6,0.8,3.2l1.3,0.7
			c1.1,0.7,2.5,0.3,3.2-0.9l2.6-4.6c0.1-0.3,0.2-0.5,0.3-0.8c1.2,0.5,2.4,0.8,3.6,1c-0.1,0.3-0.2,0.6-0.2,1l0,5.3
			c0,1.3,1,2.4,2.3,2.4h1.5c1.3,0,2.3-1.1,2.3-2.4l0-5.3c0-0.3,0-0.5-0.1-0.7c1.5-0.2,3-0.5,4.5-1.1c0,0.3,0.1,0.5,0.3,0.7l2.6,4.6
			c0.6,1.1,2.1,1.5,3.2,0.9l1.3-0.7c1.1-0.7,1.5-2.1,0.8-3.2l-2.6-4.6c-0.1-0.2-0.2-0.3-0.3-0.5c1.3-1,2.5-2.2,3.5-3.4
			c0.2,0.3,0.5,0.5,0.8,0.7l4.5,2.7c1.1,0.6,2.5,0.3,3.2-0.9l0.7-1.3c0.6-1.1,0.3-2.6-0.9-3.2l-4.5-2.7c-0.3-0.2-0.6-0.3-0.9-0.3
			c0.6-1.4,1-2.9,1.3-4.5c0.2,0.1,0.5,0.1,0.8,0.1l5.2,0c1.3,0,2.3-1.1,2.3-2.4v-1.5c0-1.3-1-2.4-2.3-2.4h-5.2c-0.2,0-0.4,0-0.6,0.1
			c-0.2-1.6-0.6-3.2-1.2-4.7c0.2,0,0.4-0.1,0.6-0.3l4.5-2.7c1.1-0.7,1.5-2.1,0.8-3.2l-0.7-1.3c-0.6-1.1-2.1-1.5-3.2-0.8l-4.5,2.7
			c-0.2,0.1-0.3,0.2-0.5,0.4c-1-1.3-2.2-2.5-3.5-3.5c0.3-0.2,0.5-0.4,0.7-0.7l2.6-4.6c0.6-1.1,0.3-2.6-0.8-3.2l-1.3-0.7
			c-1.1-0.6-2.5-0.3-3.2,0.9l-2.6,4.6c-0.2,0.3-0.3,0.7-0.3,1c-1.7-0.7-3.5-1.1-5.3-1.3c0.1-0.3,0.2-0.6,0.2-1l0-5.3
			c0-1.3-1-2.3-2.3-2.3h-1.5c-1.3,0-2.3,1.1-2.3,2.4l0,5.3c0,0.4,0.1,0.8,0.3,1.2c-1.3,0.3-2.7,0.6-4,1.2c-0.1-0.2-0.1-0.4-0.2-0.6
			l-2.6-4.6c-0.6-1.1-2-1.5-3.1-0.8L92.2,17c-1.1,0.6-1.5,2.1-0.9,3.2l2.6,4.6c0.1,0.2,0.3,0.4,0.4,0.6c-1.3,1.1-2.5,2.3-3.4,3.6
			c-0.2-0.3-0.5-0.6-0.8-0.8l-4.5-2.6c-1.1-0.6-2.5-0.3-3.1,0.9l-0.7,1.3c-0.6,1.1-0.3,2.5,0.8,3.2l4.5,2.6c0.4,0.2,0.8,0.3,1.3,0.3
			c-0.6,1.7-1.1,3.5-1.2,5.3c-0.2-0.1-0.5-0.1-0.8-0.1l-5.2,0c-1.3,0-2.3,1.1-2.3,2.3l0,1.5c0,1.3,1,2.3,2.3,2.3l5.2,0
			c0.4,0,0.8-0.1,1.1-0.3c0.2,1.2,0.6,2.5,1,3.7c-0.3,0-0.6,0.1-0.8,0.3L83,51.4c-1.1,0.6-1.5,2.1-0.9,3.2l0.7,1.3
			c0.6,1.1,2,1.5,3.1,0.9l4.5-2.6C90.8,53.9,91,53.7,91.2,53.5z M96.6,47.2c-3.2-5.7-1.3-13,4.3-16.2c5.6-3.3,12.8-1.4,16,4.3
			c3.2,5.7,1.3,13-4.3,16.3C107,54.9,99.8,52.9,96.6,47.2z"/>
		<path class="st1" d="M71.3,32.6c3.3-13.8,6.5-19,7.4-20.9c0.9-1.9,3.7-5.8,7.6-6.6c4-0.8,9.6,1.6,10.1,1.8
			c0.5,0.2,5.2,1.9,7.2,5.1c2,3.1,1.8,7.3-0.3,12.4c-2.2,5.3-5,9.6-6,11.8c-0.7,1.6-1.1,4.3-0.9,10.2c0.3,5.9-0.2,10.6-2.2,13.5
			c-1.8,2.6-5.4,4.7-11.5,4.6c-6.2-0.1-9-2.9-10.7-5.8C70.1,55.4,68,46.4,71.3,32.6z"/>
		<path class="st2" d="M74,32.3c3.2-12.5,5.7-17,6.5-18.6c1.1-2.1,2.7-5.1,6.1-5.8c3.4-0.7,8,1.3,8.5,1.5c0.4,0.2,4.6,1.6,6.3,4.4
			c1.7,2.7,1,6.4-0.8,10.9c-2,4.7-4.5,8.6-5.3,10.5c-0.6,1.5-1.3,4-1.1,9.2c0.2,5.2,0,11-1.7,13.6c-1.5,2.3-4.2,4.1-9.4,4
			c-5.2-0.1-7.6-2.6-9-5.1C72.3,54,70.9,44.3,74,32.3z"/>
		<g>
			<path class="st3" d="M86.5,21c0.1,0.5,0.3,0.9,0.5,1.3c-0.1,0-0.1,0.1-0.2,0.1l-1.2,0.9c-0.3,0.2-0.3,0.6-0.1,0.9l0.3,0.3
				c0.2,0.3,0.6,0.4,0.9,0.1l1.2-0.9c0.1,0,0.1-0.1,0.2-0.2c0.3,0.3,0.5,0.5,0.8,0.7c-0.1,0.1-0.1,0.1-0.2,0.2L88.2,26
				c-0.1,0.3,0,0.7,0.4,0.9l0.4,0.2c0.3,0.1,0.7,0,0.9-0.4l0.6-1.4c0-0.1,0-0.1,0.1-0.2c0.4,0.1,0.9,0.2,1.3,0.2c0,0.1,0,0.2,0,0.2
				L92,27c0,0.4,0.4,0.6,0.7,0.6l0.4-0.1c0.4,0,0.6-0.4,0.6-0.8l-0.2-1.5c0-0.1,0-0.1,0-0.2c0.5-0.1,0.9-0.3,1.3-0.5
				c0,0.1,0.1,0.2,0.1,0.3l0.9,1.2c0.2,0.3,0.6,0.4,0.9,0.1l0.3-0.3c0.3-0.2,0.4-0.6,0.1-0.9l-0.9-1.2c-0.1-0.1-0.1-0.1-0.2-0.2
				c0.3-0.3,0.6-0.7,0.8-1c0.1,0.1,0.1,0.1,0.2,0.1l1.4,0.6c0.3,0.1,0.7,0,0.9-0.4l0.2-0.4c0.1-0.3,0-0.7-0.4-0.9l-1.4-0.6
				c-0.1,0-0.1,0-0.2-0.1c0.1-0.4,0.2-0.9,0.2-1.4c0.1,0,0.1,0,0.2,0l1.5-0.2c0.4,0,0.6-0.4,0.6-0.8l-0.1-0.4c0-0.4-0.4-0.6-0.7-0.6
				l-1.5,0.2c-0.1,0-0.1,0-0.2,0.1c-0.1-0.5-0.3-0.9-0.5-1.3c0.1,0,0.2-0.1,0.3-0.1l1.2-0.9c0.3-0.2,0.4-0.6,0.1-0.9l-0.3-0.3
				c-0.2-0.3-0.6-0.3-0.9-0.1l-1.2,0.9c-0.1,0.1-0.1,0.1-0.2,0.2c-0.4-0.4-0.8-0.7-1.3-0.9c0.1-0.1,0.1-0.1,0.2-0.2l0.6-1.4
				c0.1-0.3,0-0.7-0.4-0.9l-0.4-0.2c-0.3-0.1-0.7,0-0.9,0.4l-0.6,1.4c0,0.1-0.1,0.2,0,0.3c-0.4-0.1-0.8-0.1-1.2-0.1
				c0-0.1,0-0.1,0-0.2L92,12c0-0.4-0.4-0.6-0.8-0.6l-0.4,0.1c-0.4,0-0.6,0.4-0.6,0.7l0.2,1.5c0,0.1,0,0.1,0.1,0.2
				c-0.5,0.1-0.9,0.3-1.3,0.6c0-0.1-0.1-0.2-0.1-0.3l-0.9-1.2c-0.2-0.3-0.6-0.4-0.9-0.1L86.8,13c-0.3,0.2-0.4,0.7-0.1,0.9l0.9,1.2
				c0.1,0.1,0.2,0.2,0.3,0.2c-0.4,0.4-0.7,0.8-0.9,1.3c-0.1-0.1-0.1-0.1-0.2-0.1L85.4,16c-0.3-0.1-0.7,0-0.9,0.4l-0.2,0.4
				c-0.1,0.3,0,0.7,0.4,0.9l1.4,0.6c0.1,0,0.2,0.1,0.3,0.1c-0.1,0.4-0.1,0.7-0.1,1.1c-0.1,0-0.2,0-0.3,0l-1.5,0.2
				c-0.4,0-0.6,0.4-0.6,0.8l0,0.4c0.1,0.4,0.4,0.6,0.8,0.6l1.5-0.2C86.4,21.1,86.5,21,86.5,21z"/>
			<path class="st0" d="M88.7,20c-0.2-1.9,1.1-3.6,2.9-3.8c1.9-0.2,3.6,1.1,3.8,3c0.2,1.9-1.1,3.6-2.9,3.8
				C90.6,23.2,88.9,21.8,88.7,20z"/>
		</g>
		<g>
			<g>
				<path class="st3" d="M78.4,27.3c-0.4-1.7,0.6-3.4,2.3-3.8c1.7-0.4,3.4,0.7,3.8,2.4c0.4,1.7-0.7,3.4-2.3,3.8
					C80.5,30,78.8,29,78.4,27.3z"/>
				<path class="st3" d="M84.5,25.4l0.8-0.2c0.2,0,0.4,0.1,0.4,0.3l0,0.2c0,0.2-0.1,0.4-0.3,0.4l-0.8,0.2c-0.2,0-0.4-0.1-0.4-0.3
					l-0.1-0.2C84.1,25.7,84.3,25.5,84.5,25.4z"/>
				<path class="st3" d="M77.4,27l0.8-0.2c0.2,0,0.4,0.1,0.4,0.3l0.1,0.2c0,0.2-0.1,0.4-0.3,0.4L77.6,28c-0.2,0.1-0.4-0.1-0.4-0.3
					l-0.1-0.2C77.1,27.3,77.2,27.1,77.4,27z"/>
				<path class="st3" d="M82.5,29.6l0.2,0.8c0,0.2-0.1,0.4-0.3,0.4l-0.2,0c-0.2,0-0.4-0.1-0.4-0.3l-0.2-0.8c0-0.2,0.1-0.4,0.3-0.4
					l0.2,0C82.3,29.3,82.5,29.4,82.5,29.6z"/>
				<path class="st3" d="M80.9,22.5l0.2,0.8c0.1,0.2-0.1,0.4-0.3,0.5l-0.2,0c-0.2,0.1-0.4-0.1-0.4-0.3L80,22.7
					c0-0.2,0.1-0.4,0.3-0.5l0.2-0.1C80.7,22.2,80.9,22.3,80.9,22.5z"/>
				<path class="st3" d="M77.6,25.1l0.8,0.2c0.2,0.1,0.3,0.3,0.3,0.5L78.6,26c-0.1,0.2-0.3,0.3-0.4,0.2L77.4,26
					c-0.2-0.1-0.3-0.3-0.3-0.5l0.1-0.2C77.2,25.1,77.4,25,77.6,25.1z"/>
				<path class="st3" d="M78.9,23.3l0.6,0.6c0.1,0.2,0.1,0.4,0,0.5l-0.2,0.2c-0.1,0.1-0.4,0.1-0.5,0l-0.6-0.6
					c-0.1-0.1-0.1-0.4,0-0.5l0.2-0.2C78.5,23.1,78.7,23.1,78.9,23.3z"/>
				<path class="st3" d="M83.9,28.7l0.6,0.6c0.1,0.2,0.1,0.4,0,0.5l-0.2,0.2c-0.1,0.1-0.4,0.1-0.5,0l-0.6-0.6
					c-0.1-0.1-0.1-0.4,0-0.5l0.2-0.2C83.6,28.5,83.8,28.5,83.9,28.7z"/>
				<path class="st3" d="M79.5,29.1l-0.6,0.5c-0.1,0.1-0.4,0.1-0.5,0l-0.2-0.2c-0.1-0.1-0.1-0.4,0-0.5l0.6-0.6
					c0.1-0.1,0.4-0.1,0.5,0l0.2,0.2C79.6,28.8,79.6,29,79.5,29.1z"/>
				<path class="st3" d="M84.7,24.1l-0.6,0.6c-0.1,0.1-0.4,0.1-0.5,0l-0.2-0.2c-0.1-0.1-0.1-0.4,0-0.5l0.6-0.6
					c0.2-0.1,0.4-0.1,0.5,0l0.1,0.2C84.9,23.7,84.9,23.9,84.7,24.1z"/>
				<path class="st3" d="M84.6,27.1l0.8,0.2c0.2,0.1,0.3,0.3,0.2,0.5L85.6,28c-0.1,0.2-0.3,0.3-0.5,0.3L84.3,28
					c-0.2,0-0.3-0.3-0.2-0.4l0.1-0.2C84.2,27.2,84.4,27.1,84.6,27.1z"/>
				<path class="st3" d="M83,22.7l-0.2,0.8c-0.1,0.2-0.3,0.3-0.5,0.3L82,23.7c-0.2-0.1-0.3-0.3-0.2-0.5l0.2-0.8
					c0.1-0.2,0.3-0.3,0.5-0.3l0.2,0.1C82.9,22.3,83,22.5,83,22.7z"/>
				<path class="st3" d="M80.9,29.8l-0.2,0.8c-0.1,0.2-0.3,0.3-0.4,0.2L80,30.7c-0.2-0.1-0.3-0.2-0.2-0.4l0.2-0.8
					c0.1-0.2,0.3-0.3,0.4-0.2l0.2,0.1C80.8,29.4,80.9,29.6,80.9,29.8z"/>
			</g>
			<path class="st0" d="M79.6,27c-0.2-1,0.4-2,1.4-2.2c1-0.2,2,0.4,2.2,1.4c0.2,1-0.4,2-1.4,2.2C80.9,28.6,79.9,28,79.6,27z"/>
		</g>
		<path class="st4" d="M61.7,37.3c0.1,0.2,0.3,0.3,0.4,0.5c0,0,0,0-0.1,0.1l-0.3,0.6c-0.1,0.1,0,0.3,0.1,0.4l0.2,0.1
			c0.1,0.1,0.3,0.1,0.4-0.1l0.4-0.6c0,0,0-0.1,0-0.1c0.1,0.1,0.3,0.1,0.5,0.2c0,0,0,0.1,0,0.1l0,0.7c0,0.2,0.1,0.3,0.3,0.3l0.2,0
			c0.2,0,0.3-0.1,0.3-0.3l0-0.7c0,0,0-0.1,0-0.1c0.2,0,0.4,0,0.6-0.1c0,0,0,0.1,0,0.1l0.3,0.6c0.1,0.1,0.3,0.2,0.4,0.1l0.2-0.1
			c0.2-0.1,0.2-0.3,0.1-0.4L65.2,38c0,0,0,0,0-0.1c0.2-0.1,0.3-0.3,0.5-0.4c0,0,0.1,0.1,0.1,0.1l0.6,0.4c0.1,0.1,0.3,0.1,0.4-0.1
			l0.1-0.2c0.1-0.1,0.1-0.3-0.1-0.4l-0.6-0.4c0,0-0.1,0-0.1,0c0.1-0.2,0.2-0.4,0.2-0.6c0,0,0.1,0,0.1,0l0.7,0c0.2,0,0.3-0.1,0.3-0.3
			l0-0.2c0-0.2-0.1-0.3-0.3-0.3l-0.7,0c0,0-0.1,0-0.1,0c0-0.2-0.1-0.4-0.1-0.6c0,0,0.1,0,0.1,0l0.6-0.3c0.2-0.1,0.2-0.3,0.1-0.4
			L67,33.9c-0.1-0.2-0.3-0.2-0.4-0.1l-0.6,0.3c0,0,0,0-0.1,0.1c-0.1-0.2-0.3-0.3-0.5-0.5c0,0,0.1-0.1,0.1-0.1l0.4-0.6
			c0.1-0.1,0.1-0.3-0.1-0.4l-0.2-0.1c-0.1-0.1-0.3,0-0.4,0.1l-0.4,0.6c0,0,0,0.1-0.1,0.1c-0.2-0.1-0.5-0.1-0.7-0.2c0,0,0-0.1,0-0.1
			l0-0.7c0-0.2-0.1-0.3-0.3-0.3h-0.2c-0.2,0-0.3,0.1-0.3,0.3l0,0.7c0,0.1,0,0.1,0,0.2c-0.2,0-0.4,0.1-0.5,0.1c0,0,0-0.1,0-0.1
			l-0.3-0.6c-0.1-0.1-0.3-0.2-0.4-0.1l-0.2,0.1c-0.1,0.1-0.2,0.3-0.1,0.4l0.3,0.6c0,0,0,0.1,0.1,0.1c-0.2,0.1-0.3,0.3-0.5,0.5
			c0,0-0.1-0.1-0.1-0.1L61,33.8c-0.1-0.1-0.3,0-0.4,0.1L60.5,34c-0.1,0.1,0,0.3,0.1,0.4l0.5,0.3c0.1,0,0.1,0,0.2,0
			c-0.1,0.2-0.1,0.4-0.2,0.7c0,0-0.1,0-0.1,0l-0.6,0c-0.2,0-0.3,0.1-0.3,0.3v0.2c0,0.2,0.1,0.3,0.3,0.3l0.6,0c0,0,0.1,0,0.1,0
			c0,0.2,0.1,0.3,0.1,0.5c0,0-0.1,0-0.1,0L60.6,37c-0.1,0.1-0.2,0.2-0.1,0.4l0.1,0.2c0.1,0.1,0.3,0.2,0.4,0.1L61.7,37.3
			C61.6,37.3,61.6,37.3,61.7,37.3z M62.4,36.5c-0.4-0.7-0.1-1.6,0.6-2c0.7-0.4,1.7-0.1,2.1,0.6c0.4,0.7,0.1,1.7-0.6,2.1
			C63.7,37.5,62.8,37.3,62.4,36.5z"/>
		<rect x="61" y="40.5" class="st4" width="5.4" height="9.3"/>
		<g>
			<polygon class="st4" points="100.2,32.7 114.3,32.7 114.3,36.4 105.5,36.4 105.5,39.1 113.6,39.1 113.6,42.6 105.5,42.6 
				105.5,45.8 114.4,46 114.4,49.7 100.2,49.7 			"/>
			<polygon class="st4" points="120.8,49.7 120.8,32.7 127.7,32.7 130.3,43.2 133,32.7 139.9,32.7 139.9,49.7 135.6,49.7 
				135.6,36.4 132.3,49.7 128.4,49.7 125.1,36.9 125.1,49.7 			"/>
			<g>
				<path class="st4" d="M86.6,38.3l5-1c0,0-0.4-2.5-2.8-3.9c-1.5-0.9-5.2-1.5-8.1-0.7c-1.7,0.4-4.8,1.1-5.9,6.6c-1,5,1.5,8.3,3,9.3
					c1.8,1.2,4.5,1.9,8.9,1.2c0.6-0.1,1.2-0.3,1.7-0.5c1.9-0.8,3.4-2.3,3.4-3c0-0.9,0-6.2,0-6.2l-8.1,0v3.5l3.5,0l0,1.5
					c0,0-1.5,1.3-3.8,1.1c-2.3-0.2-3.3-1.8-3.5-3.5c-0.2-1.6,0-5.1,1.6-5.9c1.6-0.8,3.2-0.8,4.1,0C86.5,37.5,86.6,38.3,86.6,38.3z"
					/>
				<path class="st4" d="M91.8,47.3v-1.8l-4.7,2.2l1.8,1.3c0,0,1-0.5,1.5-0.8C91,47.9,91.7,47.4,91.8,47.3z"/>
			</g>
		</g>
	</g>
	<path class="st5" d="M86,81.4c0,2.4-1,4.3-3.1,5.7s-3.1,2.9-3.2,4.5H86V95H75.4v-3.3c0.3-2.2,1.4-4.1,3.5-5.6s3.1-3.1,3.1-4.6
		c0-1.3-0.5-2-1.3-2c-0.9,0-1.3,0.8-1.3,2.5l-4-0.5c0.2-3.6,2-5.3,5.3-5.3C84.3,76.1,86,77.9,86,81.4z"/>
	<path class="st5" d="M99.3,82.5v6.1c0,4.4-1.8,6.6-5.3,6.6s-5.3-2.2-5.3-6.6v-6.1c0-4.3,1.8-6.4,5.3-6.4S99.3,78.3,99.3,82.5z
		 M94,79.5c-0.9,0-1.3,1-1.3,3.1v6.1c0,2.2,0.4,3.3,1.3,3.3s1.3-1.1,1.3-3.3v-6.1C95.3,80.5,94.9,79.5,94,79.5z"/>
	<path class="st5" d="M103.3,82.4v-3.3c0.9,0,1.6-0.9,2-2.7h4V95h-4V81C104.9,81.9,104.2,82.4,103.3,82.4z"/>
	<path class="st5" d="M118.9,76.1c3.8,0,5.7,2.2,5.7,6.6v5.7c0,4.5-1.9,6.8-5.7,6.8c-3.5,0-5.3-1.8-5.6-5.3l4-0.5
		c0,1.7,0.5,2.5,1.6,2.5c1.2,0,1.7-1.2,1.7-3.5v-1.6c-0.5,1-1.4,1.5-2.8,1.5c-3,0-4.5-1.9-4.5-5.8C113.3,78.3,115.2,76.1,118.9,76.1
		z M118.5,85c0.8,0,1.5-0.4,2.1-1.2v-1.1c0-2.2-0.6-3.3-1.7-3.3c-1,0-1.6,1-1.6,2.9C117.3,84.1,117.7,85,118.5,85z"/>
</g>
</svg>
